<svg xmlns="http://www.w3.org/2000/svg" xmlns:xlink="http://www.w3.org/1999/xlink" width="50" zoomAndPan="magnify" viewBox="0 0 37.5 37.499999" height="50" preserveAspectRatio="xMidYMid meet" version="1.0"><defs><clipPath id="f7c7000b41"><path d="M 0 10 L 37.007812 10 L 37.007812 37.007812 L 0 37.007812 Z M 0 10 " clip-rule="nonzero"/></clipPath><clipPath id="113ee2ef6a"><path d="M 0 0 L 37.007812 0 L 37.007812 27 L 0 27 Z M 0 0 " clip-rule="nonzero"/></clipPath><clipPath id="3dc113036d"><path d="M 26.277344 5.394531 L 30.71875 5.394531 L 30.71875 9.835938 L 26.277344 9.835938 Z M 26.277344 5.394531 " clip-rule="nonzero"/></clipPath><clipPath id="9c5562b526"><path d="M 28.605469 5.394531 C 27.320312 5.394531 26.277344 6.4375 26.277344 7.726562 C 26.277344 9.011719 27.320312 10.054688 28.605469 10.054688 C 29.894531 10.054688 30.9375 9.011719 30.9375 7.726562 C 30.9375 6.4375 29.894531 5.394531 28.605469 5.394531 Z M 28.605469 5.394531 " clip-rule="nonzero"/></clipPath><clipPath id="c2a744f079"><path d="M 9.363281 10.058594 L 28.605469 10.058594 L 28.605469 29.300781 L 9.363281 29.300781 Z M 9.363281 10.058594 " clip-rule="nonzero"/></clipPath><clipPath id="12da2acd22"><path d="M 18.984375 10.058594 C 13.671875 10.058594 9.363281 14.367188 9.363281 19.679688 C 9.363281 24.992188 13.671875 29.300781 18.984375 29.300781 C 24.296875 29.300781 28.605469 24.992188 28.605469 19.679688 C 28.605469 14.367188 24.296875 10.058594 18.984375 10.058594 Z M 18.984375 10.058594 " clip-rule="nonzero"/></clipPath></defs><g clip-path="url(#f7c7000b41)"><path stroke-linecap="butt" transform="matrix(0.740132, 0, 0, 0.740132, 0.351635, 18.503288)" fill="none" stroke-linejoin="miter" d="M 0.997403 0.000835042 L 0.997403 12.002503 C 0.997403 18.626114 6.370181 23.998892 12.99907 23.998892 L 36.052405 23.998892 C 42.676017 23.998892 48.048795 18.626114 48.048795 12.002503 L 48.048795 0.000835042 " stroke="#ffffff" stroke-width="2" stroke-opacity="1" stroke-miterlimit="4"/></g><g clip-path="url(#113ee2ef6a)"><path stroke-linecap="butt" transform="matrix(0.740132, 0, 0, 0.740132, 0.351635, 0.444079)" fill="none" stroke-linejoin="miter" d="M 2.000181 24.400835 L 1.498792 24.400835 C 1.224347 24.400835 0.997403 24.173891 0.997403 23.899446 L 0.997403 12.700001 C 0.997403 9.596667 2.232403 6.620001 4.427959 4.424445 C 6.623514 2.234167 9.594903 0.999167 12.698237 0.999167 L 36.347961 0.999167 C 39.451294 0.999167 42.427961 2.234167 44.623517 4.424445 C 46.819073 6.620001 48.048795 9.596667 48.048795 12.700001 L 48.048795 23.899446 C 48.048795 24.173891 48.275739 24.400835 48.550184 24.400835 L 49.051573 24.400835 " stroke="#ffffff" stroke-width="2" stroke-opacity="1" stroke-miterlimit="4"/></g><g clip-path="url(#3dc113036d)"><g clip-path="url(#9c5562b526)"><path stroke-linecap="butt" transform="matrix(0.740132, 0, 0, 0.740132, 26.277145, 5.395556)" fill="none" stroke-linejoin="miter" d="M 3.145824 -0.00138487 C 1.409435 -0.00138487 0.000268222 1.407782 0.000268222 3.149449 C 0.000268222 4.885838 1.409435 6.295004 3.145824 6.295004 C 4.887491 6.295004 6.296658 4.885838 6.296658 3.149449 C 6.296658 1.407782 4.887491 -0.00138487 3.145824 -0.00138487 Z M 3.145824 -0.00138487 " stroke="#ffffff" stroke-width="2" stroke-opacity="1" stroke-miterlimit="4"/></g></g><g clip-path="url(#c2a744f079)"><g clip-path="url(#12da2acd22)"><path stroke-linecap="butt" transform="matrix(0.740132, 0, 0, 0.740132, 9.362664, 10.058385)" fill="none" stroke-linejoin="miter" d="M 13.000001 0.000282226 C 5.822223 0.000282226 0.000833522 5.821672 0.000833522 12.99945 C 0.000833522 20.177228 5.822223 25.998617 13.000001 25.998617 C 20.177779 25.998617 25.999169 20.177228 25.999169 12.99945 C 25.999169 5.821672 20.177779 0.000282226 13.000001 0.000282226 Z M 13.000001 0.000282226 " stroke="#ffffff" stroke-width="6" stroke-opacity="1" stroke-miterlimit="4"/></g></g></svg>